Coordinates
version=1
nRows=21
nColumns=34
inDegrees=no

Units are S.I. units (second, meters, Newtons, ...)
If the header above contains a line with 'inDegrees', this indicates whether rotational values are in degrees (yes) or radians (no).

endheader
time	pelvis_tilt	pelvis_list	pelvis_rotation	pelvis_tx	pelvis_ty	pelvis_tz	hip_flexion_r	hip_adduction_r	hip_rotation_r	knee_angle_r	ankle_angle_r	subtalar_angle_r	mtp_angle_r	hip_flexion_l	hip_adduction_l	hip_rotation_l	knee_angle_l	ankle_angle_l	subtalar_angle_l	mtp_angle_l	lumbar_extension	lumbar_bending	lumbar_rotation	arm_flex_r	arm_add_r	arm_rot_r	elbow_flex_r	pro_sup_r	arm_flex_l	arm_add_l	arm_rot_l	elbow_flex_l	pro_sup_l
0.75	-0.0591371	0.204986	0.0029538	0.767409	0.930458	-0.214334	-0.0350468	-0.267284	-0.07314	0.873451	-0.0101404	-0.122337	-0.0217088	0.454132	0.157297	-0.275365	0.465519	0.13302	0.105536	-0.0217141	-0.103373	-0.472644	0.198614	-0.0669106	-0.24123	0.401158	0.761071	1.77638	-0.155891	-0.265448	-0.0256448	0.43686	1.63897
0.76	-0.061254	0.20433	-0.00403799	0.777478	0.932233	-0.21442	0.00356627	-0.267711	-0.0501557	0.924076	-0.0278288	-0.15727	-0.0217045	0.440951	0.15635	-0.277388	0.459421	0.142862	0.107867	-0.0217098	-0.0995009	-0.473703	0.196518	-0.0669714	-0.241857	0.413366	0.762348	1.79261	-0.150422	-0.263847	-0.030201	0.441965	1.63857
0.77	-0.0625391	0.202364	-0.0105062	0.78732	0.934073	-0.214505	0.0409021	-0.265831	-0.0294314	0.970245	-0.0394373	-0.189203	-0.0217001	0.426815	0.154396	-0.278696	0.45283	0.151949	0.110861	-0.0217054	-0.0972133	-0.472837	0.192614	-0.0664107	-0.242649	0.42354	0.764151	1.80748	-0.144336	-0.262559	-0.0330636	0.447193	1.63843
0.78	-0.0630097	0.199241	-0.0162112	0.796968	0.935979	-0.214599	0.0765445	-0.261947	-0.0112392	1.01139	-0.0458756	-0.217738	-0.0216957	0.411713	0.151665	-0.279242	0.445799	0.160526	0.114628	-0.0217011	-0.0965567	-0.470309	0.186889	-0.0654441	-0.243434	0.431552	0.766279	1.81998	-0.137487	-0.261734	-0.0342848	0.452315	1.63869
0.79	-0.0627202	0.195168	-0.0210026	0.806458	0.937945	-0.214712	0.110243	-0.256459	0.00427834	1.04716	-0.0482354	-0.242628	-0.0216914	0.395623	0.148409	-0.279096	0.438261	0.168799	0.119308	-0.0216968	-0.0974641	-0.466428	0.179459	-0.0642697	-0.244092	0.437441	0.768539	1.82931	-0.129762	-0.261498	-0.0339373	0.457149	1.63948
0.8	-0.0617594	0.19039	-0.0248167	0.815824	0.939954	-0.214849	0.1419	-0.249824	0.0171006	1.07736	-0.0475959	-0.2638	-0.021687	0.378546	0.144878	-0.278421	0.430095	0.17692	0.125042	-0.0216925	-0.0997689	-0.461524	0.170547	-0.0630525	-0.244556	0.441387	0.770767	1.8349	-0.121091	-0.261954	-0.0320898	0.461588	1.64086
0.81	-0.0602448	0.185157	-0.027666	0.825098	0.941982	-0.215014	0.17155	-0.242497	0.0273142	1.10198	-0.0448725	-0.281351	-0.0216826	0.360536	0.141289	-0.277446	0.421195	0.184982	0.131953	-0.0216882	-0.103228	-0.455915	0.160452	-0.0619131	-0.244809	0.443674	0.772829	1.8365	-0.111456	-0.263174	-0.028798	0.465599	1.64283
0.82	-0.0583136	0.179699	-0.0296237	0.834302	0.944	-0.215207	0.199325	-0.234884	0.0350924	1.1211	-0.0407307	-0.295525	-0.0216783	0.341714	0.137799	-0.276431	0.411526	0.193035	0.140135	-0.0216839	-0.107552	-0.449874	0.149514	-0.0609237	-0.244874	0.44464	0.774631	1.83416	-0.100878	-0.265195	-0.0241095	0.46923	1.64532
0.83	-0.0561092	0.174203	-0.030807	0.843455	0.945976	-0.215426	0.225417	-0.227302	0.0406722	1.13489	-0.0355722	-0.306664	-0.0216739	0.322271	0.134486	-0.27564	0.40116	0.201103	0.149643	-0.0216796	-0.112436	-0.443611	0.138084	-0.0601095	-0.244801	0.444631	0.776108	1.82825	-0.0894101	-0.268013	-0.0180812	0.47258	1.6482
0.84	-0.0537668	0.168797	-0.0313592	0.852569	0.947875	-0.215668	0.250037	-0.21996	0.0443304	1.14357	-0.0295791	-0.315157	-0.0216695	0.302444	0.131354	-0.275311	0.390276	0.209203	0.160492	-0.0216753	-0.117594	-0.43726	0.126497	-0.0594577	-0.244655	0.443962	0.777227	1.81938	-0.0771187	-0.27158	-0.0108001	0.475783	1.65133
0.85	-0.0514005	0.163552	-0.0314354	0.861651	0.949667	-0.215928	0.27338	-0.212958	0.0463578	1.14735	-0.0227944	-0.321386	-0.0216652	0.282494	0.12834	-0.275637	0.379135	0.217352	0.172644	-0.021671	-0.122783	-0.43088	0.115058	-0.0589294	-0.244504	0.442887	0.777972	1.80833	-0.0640729	-0.275809	-0.00239893	0.478981	1.65453
0.86	-0.0490922	0.15848	-0.0311882	0.870703	0.951325	-0.216202	0.295597	-0.206303	0.0470343	1.14647	-0.0152121	-0.325689	-0.0216608	0.262665	0.125343	-0.276743	0.36804	0.225574	0.185999	-0.0216667	-0.127821	-0.424467	0.104022	-0.058473	-0.244412	0.441588	0.778348	1.79596	-0.0503365	-0.280579	0.0069392	0.482297	1.65768
0.87	-0.0468864	0.153558	-0.0307567	0.879727	0.95283	-0.216485	0.316776	-0.199947	0.0466056	1.14113	-0.00685526	-0.328339	-0.0216565	0.243157	0.122249	-0.278676	0.35729	0.233895	0.200388	-0.0216624	-0.132598	-0.417969	0.093592	-0.0580361	-0.244436	0.440174	0.778368	1.7831	-0.0359679	-0.285745	0.0169916	0.485834	1.66065
0.88	-0.0447923	0.148734	-0.0302581	0.888723	0.954165	-0.216775	0.336942	-0.193814	0.0452644	1.13151	0.00217024	-0.329545	-0.0216521	0.224109	0.118959	-0.281402	0.347137	0.242336	0.215566	-0.0216581	-0.137065	-0.411309	0.0839123	-0.0575739	-0.244623	0.438693	0.778043	1.77054	-0.0210242	-0.291153	0.0275176	0.489665	1.66338
0.89	-0.0427919	0.14395	-0.0297826	0.897693	0.955323	-0.217074	0.356066	-0.187836	0.0431387	1.1178	0.0116536	-0.329473	-0.0216477	0.205595	0.115411	-0.284812	0.33776	0.250909	0.231221	-0.0216538	-0.141231	-0.4044	0.0750737	-0.0570538	-0.245008	0.43715	0.777373	1.75891	-0.00556899	-0.296651	0.0382865	0.493845	1.66581
0.9	-0.0408534	0.139153	-0.0293921	0.906638	0.9563	-0.217383	0.374082	-0.181969	0.0402902	1.10015	0.021285	-0.328273	-0.0216434	0.187636	0.111581	-0.288736	0.329252	0.259615	0.246994	-0.0216495	-0.145135	-0.397161	0.0671175	-0.0564562	-0.245612	0.435526	0.776336	1.74871	0.0103217	-0.302107	0.0491018	0.498419	1.66791
0.91	-0.0389452	0.134304	-0.029122	0.915563	0.957093	-0.217707	0.390911	-0.176206	0.0367214	1.07872	0.0306855	-0.326101	-0.021639	0.170216	0.107493	-0.292971	0.321633	0.268444	0.262513	-0.0216452	-0.148831	-0.389533	0.0600445	-0.0557713	-0.246441	0.433791	0.774878	1.74031	0.0265565	-0.307409	0.0598169	0.503432	1.66963
0.92	-0.0370477	0.129392	-0.0289846	0.924471	0.957705	-0.218051	0.406486	-0.170573	0.0323881	1.05365	0.0394512	-0.323127	-0.0216347	0.153302	0.103203	-0.297316	0.314854	0.277382	0.277437	-0.0216409	-0.152365	-0.381485	0.0538225	-0.0549958	-0.247485	0.431914	0.772919	1.73395	0.0430292	-0.312479	0.0703377	0.508933	1.67092
0.93	-0.035161	0.12443	-0.0289755	0.93337	0.958137	-0.218418	0.420762	-0.165122	0.0272163	1.02511	0.0472063	-0.319511	-0.0216303	0.136865	0.0987937	-0.3016	0.308824	0.286412	0.29151	-0.0216366	-0.155764	-0.373022	0.0483949	-0.0541291	-0.24871	0.429863	0.770362	1.72976	0.0596238	-0.317268	0.0806137	0.514973	1.6717
0.94	-0.0333079	0.119465	-0.0290802	0.942263	0.958393	-0.218811	0.433728	-0.159921	0.0211164	0.993254	0.0536569	-0.315357	-0.021626	0.120878	0.0943641	-0.305716	0.303423	0.295516	0.304595	-0.0216323	-0.15903	-0.364183	0.0436864	-0.0531711	-0.250064	0.427597	0.767112	1.72778	0.0762209	-0.321756	0.0906198	0.521597	1.67189
0.95	-0.0315282	0.114562	-0.0292797	0.951159	0.958478	-0.219229	0.445406	-0.155044	0.013995	0.958265	0.0586408	-0.310648	-0.0216216	0.10532	0.0900184	-0.309629	0.298515	0.304676	0.316699	-0.021628	-0.16215	-0.355046	0.0396094	-0.052122	-0.251475	0.425057	0.763111	1.7279	0.0927047	-0.325942	0.100337	0.528833	1.67139
